<?xml version="1.0" encoding="UTF-8" standalone="no"?>
<svg
   viewBox="0 0 200 223.86275"
   x="0px"
   y="0px"
   version="1.1"
   id="svg8"
   sodipodi:docname="ID-logo.svg"
   width="200"
   height="223.86275"
   inkscape:version="1.1.2 (0a00cf5339, 2022-02-04)"
   xmlns:inkscape="http://www.inkscape.org/namespaces/inkscape"
   xmlns:sodipodi="http://sodipodi.sourceforge.net/DTD/sodipodi-0.dtd"
   xmlns="http://www.w3.org/2000/svg"
   xmlns:svg="http://www.w3.org/2000/svg">
  <defs
     id="defs12" />
  <sodipodi:namedview
     id="namedview10"
     pagecolor="#505050"
     bordercolor="#ffffff"
     borderopacity="1"
     inkscape:pageshadow="0"
     inkscape:pageopacity="0"
     inkscape:pagecheckerboard="1"
     showgrid="false"
     fit-margin-top="0"
     fit-margin-left="0"
     fit-margin-right="0"
     fit-margin-bottom="0"
     inkscape:zoom="8"
     inkscape:cx="18.5"
     inkscape:cy="46.4375"
     inkscape:window-width="1920"
     inkscape:window-height="1003"
     inkscape:window-x="0"
     inkscape:window-y="0"
     inkscape:window-maximized="1"
     inkscape:current-layer="svg8" />
  <path
     d="m 0,128.65914 c 0,6.83193 5.2412879,12.4122 11.890668,13.09018 1.69494,13.55953 6.884072,26.44109 15.071952,37.39302 -2.790134,4.48508 -4.459001,9.77851 -4.459001,15.43701 0,16.14105 13.14232,29.28339 29.283389,29.28339 10.560783,0 19.817783,-5.63242 24.980824,-14.05498 4.48508,0.78229 9.048389,1.1995 13.637768,1.1995 23.36413,0 45.29407,-10.19575 60.36602,-28.00567 2.60759,1.46027 5.58026,2.29469 8.76154,2.29469 4.58938,0 8.76154,-1.74709 11.94282,-4.5633 25.73704,9.30914 27.61452,5.08482 28.24034,3.67672 0.86051,-1.9557 0.33897,-4.85014 -9.93497,-11.39523 -3.46811,-2.21646 -7.66635,-4.5633 -12.28181,-6.91014 -0.44329,-6.70154 -4.53723,-12.41219 -10.32611,-15.1241 1.53849,-6.20609 2.32077,-12.6208 2.32077,-19.06158 0,-11.91675 -2.6076,-23.31197 -7.66635,-33.950991 3.62457,-2.346842 6.04964,-6.440788 6.04964,-11.082309 0,-7.275211 -5.91926,-13.220561 -13.22055,-13.220561 -2.99874,0 -5.73672,1.04304 -7.95319,2.737988 -7.01445,-7.118757 -15.17625,-12.803332 -24.30286,-16.845105 0.26076,-1.564562 0.44329,-3.181281 0.44329,-4.824069 0,-8.631171 -3.78102,-16.401824 -9.75243,-21.747403 C 122.97457,3.2855999 117.94189,1.06912 116.27303,0.33899993 115.82973,0.15639999 115.33429,0 114.76061,0 c -2.47722,0 -6.36255,2.50332 -13.5856,13.68992 -2.242547,3.46812 -4.589387,7.43168 -6.936233,11.786359 -0.208584,0 -0.443294,-0.026 -0.6519,-0.026 -16.14106,0 -29.283378,13.142322 -29.283378,29.283378 0,0.834428 0.05214,1.642788 0.130409,2.451147 -15.25448,5.29344 -28.709706,15.332707 -38.201373,28.475025 -1.043053,-0.46936 -2.164318,-0.730131 -3.389891,-0.730131 -4.615454,0 -8.396486,3.75496 -8.396486,8.396492 0,2.790133 1.38204,5.24128 3.494192,6.77977 -2.190392,4.95444 -3.833172,10.11749 -4.954452,15.41093 C 5.8149978,115.6473 3.0001994e-5,121.4883 3.0001994e-5,128.71136 Z m 3.9114079,0 c 0,-5.13697 4.1721601,-9.30914 9.3091401,-9.30914 5.13698,0 9.309151,4.17217 9.309151,9.30914 0,5.13699 -4.172171,9.30915 -9.309151,9.30915 -5.13698,0 -9.3091401,-4.17216 -9.3091401,-9.30915 z M 51.787008,219.9774 c -14.002841,0 -25.371991,-11.39524 -25.371991,-25.37197 0,-13.97676 11.39523,-25.37198 25.371991,-25.37198 13.976744,0 25.37197,11.39522 25.37197,25.37198 0,13.97673 -11.395226,25.37197 -25.37197,25.37197 z M 159.53316,181.38488 c -7.79673,0 -14.13321,-6.33647 -14.13321,-14.13321 0,-3.59849 1.35595,-6.88407 3.59849,-9.38737 4.01571,1.48633 8.39648,3.23343 13.11625,5.26736 4.17216,1.82532 8.00534,3.62456 11.47345,5.34558 -0.62583,7.19699 -6.70154,12.88156 -14.05498,12.88156 z m -17.60132,-18.01854 c -10.61295,-5.6585 -15.776,-9.77851 -17.02765,-11.55168 2.47722,-0.39114 9.72636,1.06912 20.20892,4.66761 -1.51241,2.00786 -2.6076,4.3547 -3.18127,6.88407 z m 53.847,19.32234 c -2.26861,0.31291 -9.28306,-0.80836 -21.48665,-5.1109 1.48633,-2.11216 2.5033,-4.56331 2.97267,-7.19699 10.56079,5.52812 17.05372,10.16966 18.51398,12.30789 z m -22.52969,-18.72259 c -3.07697,-1.48633 -6.25824,-2.97267 -9.56991,-4.40685 -1.92962,-0.83443 -6.12786,-2.63368 -11.16053,-4.5633 2.06,-1.1995 4.459,-1.87748 7.01445,-1.87748 6.64939,0 12.22965,4.64154 13.71599,10.84763 z m -9.25699,-77.10682 c 0,5.136976 -4.17217,9.309149 -9.30914,9.309149 -5.13698,0 -9.30915,-4.172173 -9.30915,-9.309149 0,-5.136971 4.17217,-9.309144 9.30915,-9.309144 5.13697,0 9.30914,4.172173 9.30914,9.309144 z m -45.0333,-32.151744 c 0,14.002824 -11.39523,25.371972 -25.371983,25.371972 -6.258251,0 -11.994973,-2.294679 -16.427899,-6.075706 2.294692,-6.675468 5.215202,-14.263602 8.918,-22.790453 3.650645,-8.370414 7.144835,-15.5674 10.430417,-21.721339 12.620795,1.460259 22.477535,12.203591 22.477535,25.189444 z M 75.829097,77.967337 c 3.207353,2.451147 6.936227,4.250401 10.978008,5.215213 -9.648127,17.28841 -14.863338,21.27804 -15.775993,21.33019 -1.355948,-1.4081 -0.286841,-10.847629 4.797985,-26.545403 z M 114.63023,3.8331799 c 0.78229,0.80836 1.40811,7.4316801 -4.79798,26.5454011 C 106.46843,28.10998 102.60918,26.57148 98.437022,25.867439 106.54666,11.21272 112.75276,3.8592599 114.60415,3.8331799 Z M 92.126622,29.387701 c -3.259504,6.232158 -6.519009,13.09017 -9.648131,20.261064 -3.181277,7.327373 -6.023566,14.52436 -8.396484,21.278053 -3.67672,-4.406853 -5.893175,-10.065347 -5.893175,-16.219292 0,-13.507386 10.612933,-24.563627 23.93779,-25.319825 z M 22.816526,88.814978 c 2.477227,0 4.48508,2.007852 4.48508,4.485066 0,2.477227 -2.007853,4.48508 -4.48508,4.48508 -2.477226,0 -4.485078,-2.007853 -4.485078,-4.48508 0,-2.477214 2.007852,-4.485066 4.485078,-4.485066 z m 0,12.855472 c 4.615453,0 8.39648,-3.754939 8.39648,-8.396471 0,-2.007856 -0.730118,-3.833189 -1.903546,-5.26736 8.891933,-12.360042 21.460572,-21.825641 35.724158,-26.936549 1.19951,5.397735 3.885332,10.2218 7.6142,14.054989 -1.512401,4.563305 -2.790134,8.839771 -3.781027,12.751185 -4.015693,15.906366 -1.825318,19.139796 0.52152,20.156766 1.668881,0.73013 6.675468,2.86836 21.53881,-24.172487 0.886587,0.07824 1.773169,0.130409 2.659756,0.130409 13.116243,0 24.250713,-8.65724 27.953503,-20.574 8.42256,3.833187 15.95854,9.126615 22.45146,15.749935 -1.56456,2.164306 -2.52937,4.824065 -2.52937,7.692425 0,7.275214 5.91926,13.220548 13.22055,13.220548 1.25165,0 2.42507,-0.234693 3.57242,-0.547601 4.85013,10.143581 7.32736,21.017291 7.32736,32.360361 0,6.02356 -0.73013,11.99497 -2.13823,17.78385 -1.27773,-0.28683 -2.58154,-0.44329 -3.93749,-0.44329 -4.3547,0 -8.3704,1.56456 -11.49953,4.14609 -7.77065,-2.76406 -16.45397,-5.37167 -21.90387,-5.37167 -2.65975,0 -4.53722,0.59975 -5.18912,2.11216 -0.59975,1.35596 -2.37293,5.47597 20.57399,17.47094 0.0782,5.21521 2.42507,9.90889 6.04963,13.14233 -14.34181,16.76685 -35.07226,26.38891 -57.184729,26.38891 -3.937482,0 -7.848884,-0.3129 -11.708139,-0.91264 1.538485,-3.54635 2.398994,-7.48382 2.398994,-11.60383 0,-16.14106 -13.142314,-29.28338 -29.28338,-29.28338 -8.996226,0 -17.053734,4.09394 -22.425388,10.50864 -7.275212,-10.1175 -11.94283,-21.85171 -13.53347,-34.18568 6.023564,-1.22557 10.586886,-6.57115 10.586886,-12.95978 0,-5.99749 -4.041787,-11.03016 -9.543846,-12.6208 1.069126,-4.98053 2.633686,-9.83066 4.693699,-14.49827 0.417212,0.0782 0.860506,0.1304 1.277719,0.1304 z"
     id="path2"
     style="fill:#ffffff;fill-opacity:1;stroke-width:2.60757" />
</svg>
